<mxfile host="app.diagrams.net" agent="Mozilla/5.0 (X11; Ubuntu; Linux x86_64; rv:130.0) Gecko/20100101 Firefox/130.0" version="24.7.16">
  <diagram name="PÃ¡gina-1" id="mU11Rz7n5q8bUHUqb5Qs">
    <mxGraphModel dx="1195" dy="663" grid="1" gridSize="10" guides="1" tooltips="1" connect="1" arrows="1" fold="1" page="1" pageScale="1" pageWidth="827" pageHeight="1169" math="0" shadow="0">
      <root>
        <mxCell id="0" />
        <mxCell id="1" parent="0" />
        <mxCell id="4pZzomuBYhcsZgRtanB--26" style="edgeStyle=orthogonalEdgeStyle;rounded=0;orthogonalLoop=1;jettySize=auto;html=1;exitX=0;exitY=0.5;exitDx=0;exitDy=0;entryX=0;entryY=0.5;entryDx=0;entryDy=0;" edge="1" parent="1" target="4pZzomuBYhcsZgRtanB--25">
          <mxGeometry relative="1" as="geometry">
            <mxPoint x="89" y="320" as="sourcePoint" />
          </mxGeometry>
        </mxCell>
        <mxCell id="4pZzomuBYhcsZgRtanB--28" style="edgeStyle=orthogonalEdgeStyle;rounded=0;orthogonalLoop=1;jettySize=auto;html=1;exitX=0;exitY=0.5;exitDx=0;exitDy=0;entryX=0;entryY=0.5;entryDx=0;entryDy=0;" edge="1" parent="1" target="4pZzomuBYhcsZgRtanB--27">
          <mxGeometry relative="1" as="geometry">
            <mxPoint x="89" y="320" as="sourcePoint" />
          </mxGeometry>
        </mxCell>
        <mxCell id="4pZzomuBYhcsZgRtanB--32" style="edgeStyle=orthogonalEdgeStyle;rounded=0;orthogonalLoop=1;jettySize=auto;html=1;exitX=0.5;exitY=1;exitDx=0;exitDy=0;" edge="1" parent="1" source="4pZzomuBYhcsZgRtanB--30" target="4pZzomuBYhcsZgRtanB--31">
          <mxGeometry relative="1" as="geometry" />
        </mxCell>
        <mxCell id="4pZzomuBYhcsZgRtanB--30" value="X" style="rounded=1;whiteSpace=wrap;html=1;" vertex="1" parent="1">
          <mxGeometry x="354" y="130" width="120" height="60" as="geometry" />
        </mxCell>
        <mxCell id="4pZzomuBYhcsZgRtanB--38" style="edgeStyle=orthogonalEdgeStyle;rounded=0;orthogonalLoop=1;jettySize=auto;html=1;exitX=0.5;exitY=1;exitDx=0;exitDy=0;" edge="1" parent="1" source="4pZzomuBYhcsZgRtanB--31" target="4pZzomuBYhcsZgRtanB--33">
          <mxGeometry relative="1" as="geometry" />
        </mxCell>
        <mxCell id="4pZzomuBYhcsZgRtanB--39" style="edgeStyle=orthogonalEdgeStyle;rounded=0;orthogonalLoop=1;jettySize=auto;html=1;exitX=0.5;exitY=1;exitDx=0;exitDy=0;" edge="1" parent="1" source="4pZzomuBYhcsZgRtanB--31" target="4pZzomuBYhcsZgRtanB--34">
          <mxGeometry relative="1" as="geometry" />
        </mxCell>
        <mxCell id="4pZzomuBYhcsZgRtanB--40" style="edgeStyle=orthogonalEdgeStyle;rounded=0;orthogonalLoop=1;jettySize=auto;html=1;exitX=0.5;exitY=1;exitDx=0;exitDy=0;" edge="1" parent="1" source="4pZzomuBYhcsZgRtanB--31" target="4pZzomuBYhcsZgRtanB--35">
          <mxGeometry relative="1" as="geometry" />
        </mxCell>
        <mxCell id="4pZzomuBYhcsZgRtanB--41" style="edgeStyle=orthogonalEdgeStyle;rounded=0;orthogonalLoop=1;jettySize=auto;html=1;exitX=0.5;exitY=1;exitDx=0;exitDy=0;" edge="1" parent="1" source="4pZzomuBYhcsZgRtanB--31" target="4pZzomuBYhcsZgRtanB--36">
          <mxGeometry relative="1" as="geometry" />
        </mxCell>
        <mxCell id="4pZzomuBYhcsZgRtanB--42" style="edgeStyle=orthogonalEdgeStyle;rounded=0;orthogonalLoop=1;jettySize=auto;html=1;exitX=0.5;exitY=1;exitDx=0;exitDy=0;" edge="1" parent="1" source="4pZzomuBYhcsZgRtanB--31" target="4pZzomuBYhcsZgRtanB--37">
          <mxGeometry relative="1" as="geometry" />
        </mxCell>
        <mxCell id="4pZzomuBYhcsZgRtanB--31" value="Login" style="rounded=1;whiteSpace=wrap;html=1;" vertex="1" parent="1">
          <mxGeometry x="354" y="220" width="120" height="40" as="geometry" />
        </mxCell>
        <mxCell id="4pZzomuBYhcsZgRtanB--54" style="edgeStyle=orthogonalEdgeStyle;rounded=0;orthogonalLoop=1;jettySize=auto;html=1;exitX=0;exitY=0.5;exitDx=0;exitDy=0;entryX=0;entryY=0.5;entryDx=0;entryDy=0;" edge="1" parent="1" source="4pZzomuBYhcsZgRtanB--33" target="4pZzomuBYhcsZgRtanB--43">
          <mxGeometry relative="1" as="geometry" />
        </mxCell>
        <mxCell id="4pZzomuBYhcsZgRtanB--55" style="edgeStyle=orthogonalEdgeStyle;rounded=0;orthogonalLoop=1;jettySize=auto;html=1;exitX=0;exitY=0.5;exitDx=0;exitDy=0;entryX=0;entryY=0.5;entryDx=0;entryDy=0;" edge="1" parent="1" source="4pZzomuBYhcsZgRtanB--33" target="4pZzomuBYhcsZgRtanB--53">
          <mxGeometry relative="1" as="geometry" />
        </mxCell>
        <mxCell id="4pZzomuBYhcsZgRtanB--69" style="edgeStyle=orthogonalEdgeStyle;rounded=0;orthogonalLoop=1;jettySize=auto;html=1;exitX=0;exitY=0.5;exitDx=0;exitDy=0;entryX=0;entryY=0.5;entryDx=0;entryDy=0;" edge="1" parent="1" source="4pZzomuBYhcsZgRtanB--33" target="4pZzomuBYhcsZgRtanB--68">
          <mxGeometry relative="1" as="geometry" />
        </mxCell>
        <mxCell id="4pZzomuBYhcsZgRtanB--33" value="Inicio" style="rounded=1;whiteSpace=wrap;html=1;" vertex="1" parent="1">
          <mxGeometry x="70" y="320" width="120" height="40" as="geometry" />
        </mxCell>
        <mxCell id="4pZzomuBYhcsZgRtanB--56" style="edgeStyle=orthogonalEdgeStyle;rounded=0;orthogonalLoop=1;jettySize=auto;html=1;exitX=0;exitY=0.5;exitDx=0;exitDy=0;entryX=0;entryY=0.5;entryDx=0;entryDy=0;" edge="1" parent="1" source="4pZzomuBYhcsZgRtanB--34" target="4pZzomuBYhcsZgRtanB--44">
          <mxGeometry relative="1" as="geometry">
            <Array as="points">
              <mxPoint x="200" y="340" />
              <mxPoint x="200" y="420" />
            </Array>
          </mxGeometry>
        </mxCell>
        <mxCell id="4pZzomuBYhcsZgRtanB--64" style="edgeStyle=orthogonalEdgeStyle;rounded=0;orthogonalLoop=1;jettySize=auto;html=1;exitX=0;exitY=0.5;exitDx=0;exitDy=0;entryX=0;entryY=0.5;entryDx=0;entryDy=0;" edge="1" parent="1" source="4pZzomuBYhcsZgRtanB--34" target="4pZzomuBYhcsZgRtanB--60">
          <mxGeometry relative="1" as="geometry">
            <Array as="points">
              <mxPoint x="200" y="340" />
              <mxPoint x="200" y="490" />
            </Array>
          </mxGeometry>
        </mxCell>
        <mxCell id="4pZzomuBYhcsZgRtanB--73" style="edgeStyle=orthogonalEdgeStyle;rounded=0;orthogonalLoop=1;jettySize=auto;html=1;exitX=0;exitY=0.5;exitDx=0;exitDy=0;entryX=0;entryY=0.5;entryDx=0;entryDy=0;" edge="1" parent="1" source="4pZzomuBYhcsZgRtanB--34" target="4pZzomuBYhcsZgRtanB--70">
          <mxGeometry relative="1" as="geometry">
            <Array as="points">
              <mxPoint x="200" y="340" />
              <mxPoint x="200" y="560" />
            </Array>
          </mxGeometry>
        </mxCell>
        <mxCell id="4pZzomuBYhcsZgRtanB--34" value="Buscar" style="rounded=1;whiteSpace=wrap;html=1;" vertex="1" parent="1">
          <mxGeometry x="210" y="320" width="120" height="40" as="geometry" />
        </mxCell>
        <mxCell id="4pZzomuBYhcsZgRtanB--57" style="edgeStyle=orthogonalEdgeStyle;rounded=0;orthogonalLoop=1;jettySize=auto;html=1;exitX=0;exitY=0.5;exitDx=0;exitDy=0;entryX=0;entryY=0.5;entryDx=0;entryDy=0;" edge="1" parent="1" source="4pZzomuBYhcsZgRtanB--35" target="4pZzomuBYhcsZgRtanB--45">
          <mxGeometry relative="1" as="geometry">
            <Array as="points">
              <mxPoint x="340" y="340" />
              <mxPoint x="340" y="420" />
            </Array>
          </mxGeometry>
        </mxCell>
        <mxCell id="4pZzomuBYhcsZgRtanB--65" style="edgeStyle=orthogonalEdgeStyle;rounded=0;orthogonalLoop=1;jettySize=auto;html=1;exitX=0;exitY=0.5;exitDx=0;exitDy=0;entryX=0;entryY=0.5;entryDx=0;entryDy=0;" edge="1" parent="1" source="4pZzomuBYhcsZgRtanB--35" target="4pZzomuBYhcsZgRtanB--61">
          <mxGeometry relative="1" as="geometry">
            <Array as="points">
              <mxPoint x="340" y="340" />
              <mxPoint x="340" y="490" />
            </Array>
          </mxGeometry>
        </mxCell>
        <mxCell id="4pZzomuBYhcsZgRtanB--79" style="edgeStyle=orthogonalEdgeStyle;rounded=0;orthogonalLoop=1;jettySize=auto;html=1;exitX=0;exitY=0.5;exitDx=0;exitDy=0;entryX=0;entryY=0.5;entryDx=0;entryDy=0;" edge="1" parent="1" source="4pZzomuBYhcsZgRtanB--35" target="4pZzomuBYhcsZgRtanB--77">
          <mxGeometry relative="1" as="geometry">
            <Array as="points">
              <mxPoint x="340" y="340" />
              <mxPoint x="340" y="560" />
            </Array>
          </mxGeometry>
        </mxCell>
        <mxCell id="4pZzomuBYhcsZgRtanB--80" style="edgeStyle=orthogonalEdgeStyle;rounded=0;orthogonalLoop=1;jettySize=auto;html=1;exitX=0;exitY=0.5;exitDx=0;exitDy=0;entryX=0;entryY=0.5;entryDx=0;entryDy=0;" edge="1" parent="1" source="4pZzomuBYhcsZgRtanB--35" target="4pZzomuBYhcsZgRtanB--78">
          <mxGeometry relative="1" as="geometry">
            <Array as="points">
              <mxPoint x="340" y="340" />
              <mxPoint x="340" y="620" />
            </Array>
          </mxGeometry>
        </mxCell>
        <mxCell id="4pZzomuBYhcsZgRtanB--35" value="Comunidades" style="rounded=1;whiteSpace=wrap;html=1;" vertex="1" parent="1">
          <mxGeometry x="354" y="320" width="120" height="40" as="geometry" />
        </mxCell>
        <mxCell id="4pZzomuBYhcsZgRtanB--58" style="edgeStyle=orthogonalEdgeStyle;rounded=0;orthogonalLoop=1;jettySize=auto;html=1;exitX=0;exitY=0.5;exitDx=0;exitDy=0;entryX=0;entryY=0.5;entryDx=0;entryDy=0;" edge="1" parent="1" source="4pZzomuBYhcsZgRtanB--36" target="4pZzomuBYhcsZgRtanB--46">
          <mxGeometry relative="1" as="geometry">
            <Array as="points">
              <mxPoint x="480" y="340" />
              <mxPoint x="480" y="420" />
            </Array>
          </mxGeometry>
        </mxCell>
        <mxCell id="4pZzomuBYhcsZgRtanB--66" style="edgeStyle=orthogonalEdgeStyle;rounded=0;orthogonalLoop=1;jettySize=auto;html=1;exitX=0;exitY=0.5;exitDx=0;exitDy=0;entryX=0;entryY=0.5;entryDx=0;entryDy=0;" edge="1" parent="1" source="4pZzomuBYhcsZgRtanB--36" target="4pZzomuBYhcsZgRtanB--62">
          <mxGeometry relative="1" as="geometry">
            <Array as="points">
              <mxPoint x="480" y="340" />
              <mxPoint x="480" y="490" />
            </Array>
          </mxGeometry>
        </mxCell>
        <mxCell id="4pZzomuBYhcsZgRtanB--75" style="edgeStyle=orthogonalEdgeStyle;rounded=0;orthogonalLoop=1;jettySize=auto;html=1;exitX=0;exitY=0.5;exitDx=0;exitDy=0;entryX=0;entryY=0.5;entryDx=0;entryDy=0;" edge="1" parent="1" source="4pZzomuBYhcsZgRtanB--36" target="4pZzomuBYhcsZgRtanB--71">
          <mxGeometry relative="1" as="geometry">
            <Array as="points">
              <mxPoint x="480" y="340" />
              <mxPoint x="480" y="560" />
            </Array>
          </mxGeometry>
        </mxCell>
        <mxCell id="4pZzomuBYhcsZgRtanB--36" value="Notificaciones" style="rounded=1;whiteSpace=wrap;html=1;" vertex="1" parent="1">
          <mxGeometry x="490" y="320" width="120" height="40" as="geometry" />
        </mxCell>
        <mxCell id="4pZzomuBYhcsZgRtanB--67" style="edgeStyle=orthogonalEdgeStyle;rounded=0;orthogonalLoop=1;jettySize=auto;html=1;exitX=0;exitY=0.5;exitDx=0;exitDy=0;entryX=0;entryY=0.5;entryDx=0;entryDy=0;" edge="1" parent="1" source="4pZzomuBYhcsZgRtanB--37" target="4pZzomuBYhcsZgRtanB--63">
          <mxGeometry relative="1" as="geometry">
            <Array as="points">
              <mxPoint x="620" y="340" />
              <mxPoint x="620" y="420" />
            </Array>
          </mxGeometry>
        </mxCell>
        <mxCell id="4pZzomuBYhcsZgRtanB--76" style="edgeStyle=orthogonalEdgeStyle;rounded=0;orthogonalLoop=1;jettySize=auto;html=1;exitX=0;exitY=0.5;exitDx=0;exitDy=0;entryX=0;entryY=0.5;entryDx=0;entryDy=0;" edge="1" parent="1" source="4pZzomuBYhcsZgRtanB--37" target="4pZzomuBYhcsZgRtanB--72">
          <mxGeometry relative="1" as="geometry">
            <Array as="points">
              <mxPoint x="620" y="340" />
              <mxPoint x="620" y="490" />
            </Array>
          </mxGeometry>
        </mxCell>
        <mxCell id="4pZzomuBYhcsZgRtanB--82" style="edgeStyle=orthogonalEdgeStyle;rounded=0;orthogonalLoop=1;jettySize=auto;html=1;exitX=0;exitY=0.5;exitDx=0;exitDy=0;entryX=0;entryY=0.5;entryDx=0;entryDy=0;" edge="1" parent="1" source="4pZzomuBYhcsZgRtanB--37" target="4pZzomuBYhcsZgRtanB--81">
          <mxGeometry relative="1" as="geometry">
            <Array as="points">
              <mxPoint x="620" y="340" />
              <mxPoint x="620" y="560" />
            </Array>
          </mxGeometry>
        </mxCell>
        <mxCell id="4pZzomuBYhcsZgRtanB--37" value="Mensajes Directos" style="rounded=1;whiteSpace=wrap;html=1;" vertex="1" parent="1">
          <mxGeometry x="630" y="320" width="120" height="40" as="geometry" />
        </mxCell>
        <mxCell id="4pZzomuBYhcsZgRtanB--43" value="FAB" style="rounded=1;whiteSpace=wrap;html=1;" vertex="1" parent="1">
          <mxGeometry x="70" y="400" width="120" height="40" as="geometry" />
        </mxCell>
        <mxCell id="4pZzomuBYhcsZgRtanB--44" value="FAB" style="rounded=1;whiteSpace=wrap;html=1;" vertex="1" parent="1">
          <mxGeometry x="210" y="400" width="120" height="40" as="geometry" />
        </mxCell>
        <mxCell id="4pZzomuBYhcsZgRtanB--45" value="FAB" style="rounded=1;whiteSpace=wrap;html=1;" vertex="1" parent="1">
          <mxGeometry x="354" y="400" width="120" height="40" as="geometry" />
        </mxCell>
        <mxCell id="4pZzomuBYhcsZgRtanB--46" value="FAB" style="rounded=1;whiteSpace=wrap;html=1;" vertex="1" parent="1">
          <mxGeometry x="490" y="400" width="120" height="40" as="geometry" />
        </mxCell>
        <mxCell id="4pZzomuBYhcsZgRtanB--53" value="Navigation drawer" style="rounded=1;whiteSpace=wrap;html=1;" vertex="1" parent="1">
          <mxGeometry x="70" y="470" width="120" height="40" as="geometry" />
        </mxCell>
        <mxCell id="4pZzomuBYhcsZgRtanB--60" value="Navigation drawer" style="rounded=1;whiteSpace=wrap;html=1;" vertex="1" parent="1">
          <mxGeometry x="210" y="470" width="120" height="40" as="geometry" />
        </mxCell>
        <mxCell id="4pZzomuBYhcsZgRtanB--61" value="Navigation drawer" style="rounded=1;whiteSpace=wrap;html=1;" vertex="1" parent="1">
          <mxGeometry x="354" y="470" width="120" height="40" as="geometry" />
        </mxCell>
        <mxCell id="4pZzomuBYhcsZgRtanB--62" value="Navigation drawer" style="rounded=1;whiteSpace=wrap;html=1;" vertex="1" parent="1">
          <mxGeometry x="490" y="470" width="120" height="40" as="geometry" />
        </mxCell>
        <mxCell id="4pZzomuBYhcsZgRtanB--63" value="Navigation drawer" style="rounded=1;whiteSpace=wrap;html=1;" vertex="1" parent="1">
          <mxGeometry x="630" y="400" width="120" height="40" as="geometry" />
        </mxCell>
        <mxCell id="4pZzomuBYhcsZgRtanB--68" value="Config" style="rounded=1;whiteSpace=wrap;html=1;" vertex="1" parent="1">
          <mxGeometry x="70" y="540" width="120" height="40" as="geometry" />
        </mxCell>
        <mxCell id="4pZzomuBYhcsZgRtanB--70" value="Config" style="rounded=1;whiteSpace=wrap;html=1;" vertex="1" parent="1">
          <mxGeometry x="210" y="540" width="120" height="40" as="geometry" />
        </mxCell>
        <mxCell id="4pZzomuBYhcsZgRtanB--71" value="Config" style="rounded=1;whiteSpace=wrap;html=1;" vertex="1" parent="1">
          <mxGeometry x="490" y="540" width="120" height="40" as="geometry" />
        </mxCell>
        <mxCell id="4pZzomuBYhcsZgRtanB--72" value="Config" style="rounded=1;whiteSpace=wrap;html=1;" vertex="1" parent="1">
          <mxGeometry x="630" y="470" width="120" height="40" as="geometry" />
        </mxCell>
        <mxCell id="4pZzomuBYhcsZgRtanB--77" value="Buscar comunidad" style="rounded=1;whiteSpace=wrap;html=1;" vertex="1" parent="1">
          <mxGeometry x="353.5" y="540" width="120" height="40" as="geometry" />
        </mxCell>
        <mxCell id="4pZzomuBYhcsZgRtanB--78" value="Suscribirse" style="rounded=1;whiteSpace=wrap;html=1;" vertex="1" parent="1">
          <mxGeometry x="353.5" y="600" width="120" height="40" as="geometry" />
        </mxCell>
        <mxCell id="4pZzomuBYhcsZgRtanB--81" value="Mensaje directo" style="rounded=1;whiteSpace=wrap;html=1;" vertex="1" parent="1">
          <mxGeometry x="630" y="540" width="120" height="40" as="geometry" />
        </mxCell>
        <mxCell id="4pZzomuBYhcsZgRtanB--89" style="edgeStyle=orthogonalEdgeStyle;rounded=0;orthogonalLoop=1;jettySize=auto;html=1;exitX=0;exitY=0.5;exitDx=0;exitDy=0;entryX=0;entryY=0.5;entryDx=0;entryDy=0;" edge="1" parent="1" source="4pZzomuBYhcsZgRtanB--83" target="4pZzomuBYhcsZgRtanB--85">
          <mxGeometry relative="1" as="geometry" />
        </mxCell>
        <mxCell id="4pZzomuBYhcsZgRtanB--90" style="edgeStyle=orthogonalEdgeStyle;rounded=0;orthogonalLoop=1;jettySize=auto;html=1;exitX=0;exitY=0.5;exitDx=0;exitDy=0;entryX=0;entryY=0.5;entryDx=0;entryDy=0;" edge="1" parent="1" source="4pZzomuBYhcsZgRtanB--83" target="4pZzomuBYhcsZgRtanB--86">
          <mxGeometry relative="1" as="geometry" />
        </mxCell>
        <mxCell id="4pZzomuBYhcsZgRtanB--91" style="edgeStyle=orthogonalEdgeStyle;rounded=0;orthogonalLoop=1;jettySize=auto;html=1;exitX=0;exitY=0.5;exitDx=0;exitDy=0;entryX=0;entryY=0.5;entryDx=0;entryDy=0;" edge="1" parent="1" source="4pZzomuBYhcsZgRtanB--83" target="4pZzomuBYhcsZgRtanB--87">
          <mxGeometry relative="1" as="geometry" />
        </mxCell>
        <mxCell id="4pZzomuBYhcsZgRtanB--92" style="edgeStyle=orthogonalEdgeStyle;rounded=0;orthogonalLoop=1;jettySize=auto;html=1;exitX=0;exitY=0.5;exitDx=0;exitDy=0;entryX=0;entryY=0.5;entryDx=0;entryDy=0;" edge="1" parent="1" source="4pZzomuBYhcsZgRtanB--83" target="4pZzomuBYhcsZgRtanB--88">
          <mxGeometry relative="1" as="geometry" />
        </mxCell>
        <mxCell id="4pZzomuBYhcsZgRtanB--83" value="FAB" style="rounded=1;whiteSpace=wrap;html=1;" vertex="1" parent="1">
          <mxGeometry x="830" y="140" width="120" height="40" as="geometry" />
        </mxCell>
        <mxCell id="4pZzomuBYhcsZgRtanB--102" style="edgeStyle=orthogonalEdgeStyle;rounded=0;orthogonalLoop=1;jettySize=auto;html=1;exitX=0;exitY=0.5;exitDx=0;exitDy=0;entryX=0;entryY=0.5;entryDx=0;entryDy=0;" edge="1" parent="1" source="4pZzomuBYhcsZgRtanB--84" target="4pZzomuBYhcsZgRtanB--93">
          <mxGeometry relative="1" as="geometry" />
        </mxCell>
        <mxCell id="4pZzomuBYhcsZgRtanB--103" style="edgeStyle=orthogonalEdgeStyle;rounded=0;orthogonalLoop=1;jettySize=auto;html=1;exitX=0;exitY=0.5;exitDx=0;exitDy=0;entryX=0;entryY=0.5;entryDx=0;entryDy=0;" edge="1" parent="1" source="4pZzomuBYhcsZgRtanB--84" target="4pZzomuBYhcsZgRtanB--94">
          <mxGeometry relative="1" as="geometry" />
        </mxCell>
        <mxCell id="4pZzomuBYhcsZgRtanB--104" style="edgeStyle=orthogonalEdgeStyle;rounded=0;orthogonalLoop=1;jettySize=auto;html=1;exitX=0;exitY=0.5;exitDx=0;exitDy=0;entryX=0;entryY=0.5;entryDx=0;entryDy=0;" edge="1" parent="1" source="4pZzomuBYhcsZgRtanB--84" target="4pZzomuBYhcsZgRtanB--95">
          <mxGeometry relative="1" as="geometry" />
        </mxCell>
        <mxCell id="4pZzomuBYhcsZgRtanB--105" style="edgeStyle=orthogonalEdgeStyle;rounded=0;orthogonalLoop=1;jettySize=auto;html=1;exitX=0;exitY=0.5;exitDx=0;exitDy=0;entryX=0;entryY=0.5;entryDx=0;entryDy=0;" edge="1" parent="1" source="4pZzomuBYhcsZgRtanB--84" target="4pZzomuBYhcsZgRtanB--96">
          <mxGeometry relative="1" as="geometry" />
        </mxCell>
        <mxCell id="4pZzomuBYhcsZgRtanB--106" style="edgeStyle=orthogonalEdgeStyle;rounded=0;orthogonalLoop=1;jettySize=auto;html=1;exitX=0;exitY=0.5;exitDx=0;exitDy=0;entryX=0;entryY=0.5;entryDx=0;entryDy=0;" edge="1" parent="1" source="4pZzomuBYhcsZgRtanB--84" target="4pZzomuBYhcsZgRtanB--97">
          <mxGeometry relative="1" as="geometry" />
        </mxCell>
        <mxCell id="4pZzomuBYhcsZgRtanB--107" style="edgeStyle=orthogonalEdgeStyle;rounded=0;orthogonalLoop=1;jettySize=auto;html=1;exitX=0;exitY=0.5;exitDx=0;exitDy=0;entryX=0;entryY=0.5;entryDx=0;entryDy=0;" edge="1" parent="1" source="4pZzomuBYhcsZgRtanB--84" target="4pZzomuBYhcsZgRtanB--98">
          <mxGeometry relative="1" as="geometry" />
        </mxCell>
        <mxCell id="4pZzomuBYhcsZgRtanB--108" style="edgeStyle=orthogonalEdgeStyle;rounded=0;orthogonalLoop=1;jettySize=auto;html=1;exitX=0;exitY=0.5;exitDx=0;exitDy=0;entryX=0;entryY=0.5;entryDx=0;entryDy=0;" edge="1" parent="1" source="4pZzomuBYhcsZgRtanB--84" target="4pZzomuBYhcsZgRtanB--99">
          <mxGeometry relative="1" as="geometry" />
        </mxCell>
        <mxCell id="4pZzomuBYhcsZgRtanB--109" style="edgeStyle=orthogonalEdgeStyle;rounded=0;orthogonalLoop=1;jettySize=auto;html=1;exitX=0;exitY=0.5;exitDx=0;exitDy=0;entryX=0;entryY=0.5;entryDx=0;entryDy=0;" edge="1" parent="1" source="4pZzomuBYhcsZgRtanB--84" target="4pZzomuBYhcsZgRtanB--100">
          <mxGeometry relative="1" as="geometry" />
        </mxCell>
        <mxCell id="4pZzomuBYhcsZgRtanB--110" style="edgeStyle=orthogonalEdgeStyle;rounded=0;orthogonalLoop=1;jettySize=auto;html=1;exitX=0;exitY=0.5;exitDx=0;exitDy=0;entryX=0;entryY=0.5;entryDx=0;entryDy=0;" edge="1" parent="1" source="4pZzomuBYhcsZgRtanB--84" target="4pZzomuBYhcsZgRtanB--101">
          <mxGeometry relative="1" as="geometry" />
        </mxCell>
        <mxCell id="4pZzomuBYhcsZgRtanB--84" value="Navigation drawer" style="rounded=1;whiteSpace=wrap;html=1;" vertex="1" parent="1">
          <mxGeometry x="990" y="140" width="120" height="40" as="geometry" />
        </mxCell>
        <mxCell id="4pZzomuBYhcsZgRtanB--85" value="Transmitir" style="rounded=1;whiteSpace=wrap;html=1;" vertex="1" parent="1">
          <mxGeometry x="830" y="220" width="120" height="40" as="geometry" />
        </mxCell>
        <mxCell id="4pZzomuBYhcsZgRtanB--86" value="Espacios" style="rounded=1;whiteSpace=wrap;html=1;" vertex="1" parent="1">
          <mxGeometry x="830" y="270" width="120" height="40" as="geometry" />
        </mxCell>
        <mxCell id="4pZzomuBYhcsZgRtanB--87" value="Fotos" style="rounded=1;whiteSpace=wrap;html=1;" vertex="1" parent="1">
          <mxGeometry x="830" y="320" width="120" height="40" as="geometry" />
        </mxCell>
        <mxCell id="4pZzomuBYhcsZgRtanB--88" value="Publicar" style="rounded=1;whiteSpace=wrap;html=1;" vertex="1" parent="1">
          <mxGeometry x="830" y="370" width="120" height="40" as="geometry" />
        </mxCell>
        <mxCell id="4pZzomuBYhcsZgRtanB--93" value="Perfil" style="rounded=1;whiteSpace=wrap;html=1;" vertex="1" parent="1">
          <mxGeometry x="990" y="220" width="120" height="40" as="geometry" />
        </mxCell>
        <mxCell id="4pZzomuBYhcsZgRtanB--94" value="Premium" style="rounded=1;whiteSpace=wrap;html=1;" vertex="1" parent="1">
          <mxGeometry x="990" y="270" width="120" height="40" as="geometry" />
        </mxCell>
        <mxCell id="4pZzomuBYhcsZgRtanB--95" value="Elementos guardados" style="rounded=1;whiteSpace=wrap;html=1;" vertex="1" parent="1">
          <mxGeometry x="990" y="320" width="120" height="40" as="geometry" />
        </mxCell>
        <mxCell id="4pZzomuBYhcsZgRtanB--96" value="Listas" style="rounded=1;whiteSpace=wrap;html=1;" vertex="1" parent="1">
          <mxGeometry x="990" y="370" width="120" height="40" as="geometry" />
        </mxCell>
        <mxCell id="4pZzomuBYhcsZgRtanB--97" value="Espacios" style="rounded=1;whiteSpace=wrap;html=1;" vertex="1" parent="1">
          <mxGeometry x="990" y="420" width="120" height="40" as="geometry" />
        </mxCell>
        <mxCell id="4pZzomuBYhcsZgRtanB--98" value="MonetizaciÃ³n" style="rounded=1;whiteSpace=wrap;html=1;" vertex="1" parent="1">
          <mxGeometry x="990" y="470" width="120" height="40" as="geometry" />
        </mxCell>
        <mxCell id="4pZzomuBYhcsZgRtanB--99" value="Ajustes" style="rounded=1;whiteSpace=wrap;html=1;" vertex="1" parent="1">
          <mxGeometry x="990" y="520" width="120" height="40" as="geometry" />
        </mxCell>
        <mxCell id="4pZzomuBYhcsZgRtanB--100" value="Ayuda" style="rounded=1;whiteSpace=wrap;html=1;" vertex="1" parent="1">
          <mxGeometry x="990" y="570" width="120" height="40" as="geometry" />
        </mxCell>
        <mxCell id="4pZzomuBYhcsZgRtanB--101" value="Cuenta" style="rounded=1;whiteSpace=wrap;html=1;" vertex="1" parent="1">
          <mxGeometry x="990" y="620" width="120" height="40" as="geometry" />
        </mxCell>
      </root>
    </mxGraphModel>
  </diagram>
</mxfile>
